<svg id="icon-dark" width="512" height="512" viewBox="0 0 200 200" role="img" xmlns="http://www.w3.org/2000/svg">
  <title>Finance app icon dark</title>
  <rect width="200" height="200" rx="46" fill="#0f172a"/>
  <rect x="44" y="86" width="112" height="72" rx="12" fill="#1e3a5f"/>
  <rect x="44" y="76" width="112" height="20" rx="8" fill="#2563eb"/>
  <rect x="122" y="88" width="26" height="14" rx="7" fill="#0f172a" stroke="#60a5fa" stroke-width="1.5"/>
  <circle cx="135" cy="95" r="4" fill="#60a5fa"/>
  <rect x="56" y="148" width="88" height="2" rx="1" fill="#1e3a5f"/>
  <line x1="60" y1="143" x2="60" y2="128" stroke="#4ade80" stroke-width="4" stroke-linecap="round"/>
  <line x1="75" y1="143" x2="75" y2="120" stroke="#4ade80" stroke-width="4" stroke-linecap="round"/>
  <line x1="90" y1="143" x2="90" y2="131" stroke="#4ade80" stroke-width="4" stroke-linecap="round"/>
  <line x1="105" y1="143" x2="105" y2="117" stroke="#60a5fa" stroke-width="4" stroke-linecap="round"/>
  <line x1="120" y1="143" x2="120" y2="108" stroke="#60a5fa" stroke-width="4" stroke-linecap="round"/>
  <polyline points="60,128 75,120 90,131 105,117 120,108" fill="none" stroke="#a78bfa" stroke-width="1.5" stroke-linecap="round" stroke-linejoin="round"/>
  <circle cx="120" cy="108" r="3.5" fill="#a78bfa"/>
</svg>
